<svg width="143" height="49" viewBox="0 0 143 49" fill="none" xmlns="http://www.w3.org/2000/svg">
<g clip-path="url(#clip0_204_530)">
<path d="M46.3269 0.024851C46.4412 0.024851 46.5568 0.0110474 46.6711 0.0110474H142.054C142.441 0.0110474 142.456 0.0262283 142.467 0.409947C142.467 0.47344 142.467 0.535556 142.467 0.599049V48.1263C142.467 48.3471 142.467 48.568 142.467 48.7874C142.467 49.0069 142.419 49.0345 142.2 49.0428C142.147 49.0428 142.094 49.0428 142.041 49.0428H46.689C46.5643 49.0613 46.437 49.0505 46.3173 49.0111C46.2849 48.9697 46.2611 48.9222 46.2474 48.8715C46.2337 48.8208 46.2303 48.7678 46.2374 48.7157C46.2374 48.5901 46.2374 48.4631 46.2374 48.3375C46.2374 32.467 46.2374 16.597 46.2374 0.727414C46.2248 0.527956 46.2322 0.327731 46.2594 0.12975C46.2729 0.0897008 46.2961 0.0536477 46.3269 0.024851Z" fill="#0A0B0B"/>
<path d="M0.0123913 48.9241C0.0123913 48.8192 0 48.7157 0 48.6108V0.447228C0 0.343707 0.00826092 0.238802 0.0137682 0.133901C0.0798551 0.133901 0.104638 0.16979 0.107391 0.230522C0.107391 0.335424 0.107391 0.440325 0.107391 0.545226C0.107391 16.482 0.107391 32.4192 0.107391 48.3568C0.0983067 48.4489 0.10248 48.5419 0.119782 48.6329C0.119782 48.6439 0.163841 48.5832 0.126667 48.6025C0.112899 48.6089 0.106015 48.602 0.106015 48.5818C0.106015 48.4769 0.106015 48.372 0.106015 48.2657V0.542467C0.106015 0.0717914 0.106014 0.0717909 0.592029 0.0717909H45.7418C45.9167 0.0717909 46.097 0.0317608 46.2636 0.117338C46.3021 0.226629 46.3125 0.343878 46.2939 0.458268C46.2939 16.4999 46.2939 32.5415 46.2939 48.5832C46.2939 48.9848 46.2939 48.9862 45.9029 48.9862H0.44471C0.297675 49.0031 0.148788 48.9817 0.0123913 48.9241Z" fill="#F48653"/>
<path d="M0.0123001 48.9241C0.16788 48.8606 0.322083 48.9241 0.476286 48.9241C15.6065 48.9241 30.7359 48.9241 45.8643 48.9241C46.2773 48.9241 46.2622 48.9572 46.2622 48.5362C46.2622 32.4863 46.2622 16.4359 46.2622 0.385106C46.2622 0.300909 46.2622 0.218091 46.2622 0.133894C46.2557 0.12826 46.2506 0.121237 46.2473 0.113346C46.244 0.105456 46.2425 0.0969062 46.2429 0.0883461C46.2429 0.0717828 46.2429 0.0635021 46.2498 0.0635021C46.2546 0.0593331 46.2602 0.056247 46.2663 0.0544583C46.2724 0.0526696 46.2788 0.0522184 46.285 0.0531356C46.2913 0.0540529 46.2973 0.056318 46.3026 0.0597742C46.308 0.0632304 46.3125 0.0677952 46.3159 0.0731608C46.3159 0.187724 46.3269 0.303668 46.3269 0.418231V48.6964C46.3269 48.8013 46.3269 48.9062 46.3269 49.0111C46.2222 49.0111 46.119 49.0304 46.0143 49.0304H0.355126C0.271141 49.0304 0.187155 49.0304 0.104546 49.0304C0.0910371 49.031 0.0775558 49.0286 0.0651157 49.0233C0.0526756 49.018 0.0416 49.0099 0.0327219 48.9997C0.0238438 48.9894 0.0173939 48.9773 0.0138568 48.9642C0.0103197 48.9511 0.00978745 48.9374 0.0123001 48.9241Z" fill="#F47F4A"/>
<path d="M46.2623 0.0772999C46.2636 0.0966001 46.2636 0.115973 46.2623 0.135274H0.524577C0.111533 0.135274 0.141823 0.121473 0.141823 0.538318V48.7253C0.0440696 48.677 0.0826205 48.6038 0.0812437 48.5473C0.0812437 48.3692 0.0812437 48.1898 0.0812437 48.0117C0.0812437 32.1918 0.0812437 16.3724 0.0812437 0.553499C0.0812437 0.41547 0.140447 0.258118 0.0192871 0.139414L0.0261711 0.0772999C0.135229 0.0388183 0.252271 0.0288434 0.366244 0.0483152H45.9249C46.0377 0.0234173 46.1554 0.0335263 46.2623 0.0772999Z" fill="#F5814B"/>
<path d="M46.2623 0.0772729C46.0627 0.0772729 45.8644 0.0772729 45.6648 0.0772729H0.020752C0.110245 -0.0386707 0.235535 0.0220625 0.340172 0.0220625C2.3852 0.0220625 4.42976 0.0220625 6.47387 0.0220625H45.9884C46.104 0.0220625 46.2183 0.0289663 46.3339 0.0331071C46.3375 0.0418788 46.3379 0.0515911 46.3351 0.0606302C46.3324 0.0696693 46.3266 0.0774892 46.3188 0.0827952H46.2926L46.2623 0.0772729Z" fill="#F48653"/>
<path d="M67.0205 24.4517C66.858 24.6725 66.7217 24.8658 66.573 25.0576C65.7951 26.0362 64.7667 26.5276 63.533 26.6104C62.906 26.6696 62.2736 26.6229 61.6619 26.4724C60.725 26.2108 59.8962 25.6555 59.2966 24.8878C58.5726 23.9767 58.1074 22.8866 57.9501 21.7325C57.6878 20.1952 57.7635 18.6191 58.1717 17.1141C58.3881 16.3096 58.7809 15.5636 59.3214 14.9305C60.2741 13.8263 61.5091 13.357 62.9382 13.3128C64.1774 13.2728 65.2458 13.6537 66.1297 14.5316C66.4488 14.8511 66.7378 15.1995 66.993 15.5723C67.0359 15.6565 67.1012 15.7272 67.1816 15.7766C67.1637 15.513 67.143 15.2894 67.132 15.0644C67.1169 14.7607 67.0962 14.4557 67.0962 14.152C67.0962 11.7356 67.0962 9.31918 67.0962 6.90277V6.87102C67.0962 6.54389 67.0714 6.56322 67.4005 6.56322H70.0164C70.3345 6.56322 70.318 6.53837 70.318 6.87378C70.318 9.99506 70.318 13.1154 70.318 16.2349C70.318 19.3975 70.318 22.5598 70.318 25.7215C70.318 25.7629 70.318 25.8057 70.318 25.8471C70.318 26.1329 70.3524 26.1232 70.0426 26.1232C69.1091 26.1232 68.1756 26.1232 67.2422 26.1232C67.0205 26.1232 67.0205 26.1232 67.0219 25.901L67.0205 24.4517Z" fill="white"/>
<path d="M119.065 15.7173V14.2597C119.065 14.1865 119.065 14.1134 119.065 14.0388C119.065 13.7628 119.065 13.7628 119.331 13.7628H121.947C122.315 13.7628 122.29 13.7159 122.29 14.0927V25.7768C122.29 25.8513 122.29 25.9244 122.29 25.9976C122.29 26.0942 122.247 26.1273 122.152 26.126C122.057 26.1246 121.943 26.126 121.838 26.126C120.968 26.126 120.098 26.126 119.222 26.126C118.984 26.126 118.981 26.126 118.988 25.8872C118.999 25.4731 119.014 25.0687 119.025 24.6601C119.025 24.6035 119.061 24.5359 118.979 24.4834C118.877 24.54 118.841 24.656 118.78 24.7457C118.142 25.6608 117.309 26.3026 116.2 26.5097C114.326 26.8603 112.658 26.5097 111.357 24.9914C110.779 24.3084 110.356 23.5078 110.118 22.6449C109.832 21.5899 109.719 20.4953 109.784 19.404C109.805 18.4683 109.977 17.5422 110.292 16.6614C110.544 15.9572 110.938 15.3128 111.45 14.769C112.381 13.8028 113.546 13.3818 114.866 13.339C115.753 13.3101 116.595 13.466 117.364 13.9395C117.96 14.3162 118.462 14.8247 118.831 15.426C118.884 15.5414 118.964 15.6416 119.065 15.7173Z" fill="white"/>
<path d="M75.481 42.8853C73.9885 42.9157 72.62 42.5306 71.4387 41.5934C70.7658 41.0792 70.2043 40.4331 69.7884 39.6944C69.3725 38.9557 69.1109 38.1398 69.0196 37.2966C68.8613 35.9812 68.9329 34.6823 69.4987 33.4718C70.647 31.0121 72.5842 29.7078 75.313 29.6236C76.2695 29.571 77.2255 29.7342 78.1107 30.1012C80.1759 31.0039 81.4274 32.5774 81.8611 34.7831C82.1268 36.1357 82.0869 37.4939 81.5679 38.7859C80.5628 41.2814 78.7179 42.681 76.0138 42.8881C75.8417 42.8978 75.6627 42.8853 75.481 42.8853Z" fill="white"/>
<path d="M120.581 39.7535C119.525 41.5271 118.075 42.6521 116.017 42.8867C114.954 43.0068 113.899 42.9806 112.875 42.6562C111.085 42.0875 109.872 40.8812 109.264 39.1158C108.655 37.3504 108.61 35.516 109.247 33.7327C109.993 31.6526 111.435 30.282 113.627 29.7975C114.791 29.5371 116.003 29.5914 117.139 29.9548C119.027 30.5567 120.186 31.879 120.766 33.7465C120.9 34.21 120.992 34.685 121.041 35.1654C121.073 35.4318 121.071 35.4332 120.796 35.4856C119.664 35.701 118.533 35.9167 117.402 36.133L112.47 37.0854C112.184 37.1406 112.187 37.1434 112.243 37.4332C112.302 37.7429 112.398 38.0442 112.529 38.3304C112.685 38.6967 112.929 39.0187 113.239 39.2675C113.549 39.5163 113.916 39.6842 114.307 39.7562C114.833 39.8653 115.375 39.8625 115.9 39.748C116.265 39.6701 116.612 39.5201 116.919 39.3069C117.226 39.0936 117.488 38.8213 117.69 38.5057C117.848 38.2724 117.827 38.2945 118.056 38.4146L120.581 39.7535Z" fill="white"/>
<path d="M79.0193 13.339C80.3411 13.3459 81.4508 13.5654 82.4517 14.1865C83.7886 15.0147 84.572 16.2432 84.9506 17.7504C85.0458 18.1274 85.1103 18.5114 85.1434 18.8988C85.1613 19.1183 85.1558 19.1224 84.9369 19.1638C83.7142 19.3985 82.4916 19.629 81.2677 19.8636C79.7073 20.1636 78.1469 20.4645 76.5865 20.7663C76.2933 20.8229 76.2905 20.8271 76.3469 21.1073C76.4269 21.5637 76.5958 21.9999 76.844 22.3909C77.1105 22.8254 77.5208 23.1522 78.0032 23.3143C79.0524 23.6428 80.0685 23.6042 81.0185 22.9831C81.3328 22.7711 81.5985 22.4944 81.7977 22.1715C81.8845 22.0334 81.9533 21.9851 82.1172 22.0735C82.9102 22.5027 83.7101 22.9168 84.5059 23.3392C84.6821 23.433 84.6835 23.4399 84.572 23.6152C83.6193 25.1515 82.3113 26.195 80.4994 26.5069C79.3206 26.7347 78.1043 26.6712 76.9555 26.322C75.1505 25.7464 73.9458 24.5276 73.3469 22.7415C72.748 20.9554 72.7163 19.1776 73.3469 17.4219C74.0959 15.3322 75.5498 13.9629 77.7527 13.4688C78.1685 13.3769 78.5935 13.3334 79.0193 13.339Z" fill="white"/>
<path d="M91.1036 15.6276C91.3624 15.3037 91.6421 14.9971 91.9407 14.7097C93.0421 13.6814 94.3377 13.2507 95.826 13.3515C96.4671 13.3715 97.0963 13.5297 97.6709 13.8153C98.793 14.4171 99.3809 15.3833 99.5585 16.6255C99.6223 17.1258 99.6503 17.6299 99.6425 18.1342V25.8223C99.6425 26.1453 99.6935 26.126 99.3424 26.1274H96.5117C96.2446 26.1274 96.2363 26.1274 96.2363 25.8513C96.2363 24.0128 96.2363 22.1756 96.2363 20.3371C96.2363 19.56 96.2363 18.7829 96.0904 18.0155C96.0642 17.8774 96.0339 17.7477 95.9981 17.6166C95.782 16.8146 95.2767 16.3743 94.3349 16.286C92.3964 16.1052 91.2812 17.5572 91.1683 18.9775C91.127 19.4924 91.1187 20.0058 91.1173 20.5193C91.1173 22.2736 91.1173 24.028 91.1173 25.7823C91.1173 25.8444 91.1173 25.9079 91.1173 25.97C91.1311 26.0998 91.065 26.1384 90.9493 26.1301C90.908 26.1301 90.8667 26.1301 90.8241 26.1301H87.9961C87.6849 26.1301 87.7207 26.1301 87.7207 25.8665V14.0513C87.7207 13.9988 87.7207 13.9464 87.7207 13.8926C87.7207 13.8015 87.7634 13.7545 87.8584 13.7628H90.8144C91.0499 13.7628 91.0526 13.7628 91.054 14.0085C91.054 14.4695 91.054 14.9319 91.054 15.3888C91.0499 15.4592 91.0182 15.5351 91.1036 15.6276Z" fill="white"/>
<path d="M97.8804 31.879C97.9809 31.8389 98.018 31.7409 98.0841 31.6595C98.723 30.9031 99.4513 30.2627 100.397 29.9231C101.551 29.4953 102.819 29.489 103.977 29.9052C105.344 30.3869 106.061 31.4235 106.29 32.8341C106.357 33.3022 106.387 33.7748 106.379 34.2475C106.379 36.8636 106.379 39.4793 106.379 42.0944V42.1897C106.379 42.4105 106.379 42.4147 106.151 42.4147C105.385 42.4147 104.62 42.4147 103.854 42.4147C103.634 42.4147 103.414 42.4147 103.193 42.4147C103.056 42.4147 102.997 42.3788 103.009 42.238C103.009 42.1648 103.009 42.0903 103.009 42.0172C103.009 39.9895 103.016 37.9619 103.009 35.9356C103.018 35.2733 102.944 34.6125 102.789 33.9687C102.552 33.0702 102.022 32.6298 101.098 32.5498C99.2861 32.3924 98.153 33.7023 97.985 35.0909C97.9279 35.6337 97.9031 36.1794 97.9107 36.7251C97.9107 38.4901 97.9107 40.255 97.9107 42.0199C97.9107 42.0724 97.9107 42.1248 97.9107 42.1773C97.9107 42.4064 97.9107 42.4119 97.6904 42.4119C96.7046 42.4119 95.7188 42.4119 94.7344 42.4119C94.5967 42.4119 94.5141 42.376 94.532 42.2187C94.5354 42.1557 94.5354 42.0926 94.532 42.0296C94.532 38.1537 94.532 34.2774 94.532 30.4007C94.532 29.9866 94.4783 30.0294 94.8968 30.0294H97.5128C97.8941 30.0294 97.8432 30.0197 97.8432 30.3758C97.8432 30.8175 97.8432 31.2578 97.8432 31.6995C97.8322 31.7617 97.8046 31.8293 97.8804 31.879Z" fill="white"/>
<path d="M67.1071 38.369V38.6796C67.1139 39.719 67.1139 40.7583 67.1332 41.7977C67.14 41.8845 67.1193 41.9712 67.0741 42.0456C67.0288 42.1199 66.9614 42.1781 66.8813 42.2117C66.1269 42.6318 65.2846 42.8682 64.4223 42.9019C63.3732 42.9474 62.3502 42.8384 61.3837 42.3995C60.6512 42.0779 59.9931 41.6076 59.4512 41.0182C58.9092 40.4287 58.495 39.733 58.2349 38.975C57.6213 37.2927 57.5913 35.4522 58.1495 33.7506C58.7608 31.8072 60.5989 29.6995 63.7766 29.6305C64.6026 29.6125 65.4095 29.6705 66.1915 29.9535C66.4569 30.0507 66.7151 30.1669 66.9639 30.3013C67.017 30.324 67.0617 30.3628 67.0916 30.4124C67.1215 30.4619 67.1351 30.5196 67.1305 30.5774C67.1305 31.6899 67.1305 32.8024 67.1305 33.9287C66.9721 33.9287 66.924 33.821 66.8551 33.7575C66.4589 33.3943 65.9873 33.1238 65.4742 32.9653C64.9612 32.8068 64.4195 32.7644 63.8881 32.841C62.649 33.0039 61.8394 33.7078 61.4429 34.8714C61.1502 35.7351 61.1502 36.6716 61.4429 37.5354C61.8077 38.6492 62.682 39.4871 64.1387 39.6058C65.1355 39.6858 66.0304 39.4374 66.7615 38.7183C66.8579 38.6037 66.9625 38.5085 67.1071 38.369Z" fill="white"/>
<path d="M125.626 16.3343V6.91245C125.626 6.54529 125.584 6.56876 125.959 6.56876H128.695C129.04 6.56876 129.013 6.53839 129.013 6.8945V25.8651C129.013 26.1218 129.013 26.1246 128.761 26.126H125.93C125.578 26.126 125.626 26.126 125.626 25.8195V16.3343Z" fill="white"/>
<path d="M103.331 21.3475V16.9306C103.331 16.8671 103.331 16.8036 103.331 16.7415C103.344 16.6034 103.275 16.5606 103.144 16.562C102.746 16.562 102.348 16.562 101.949 16.562C101.694 16.562 101.693 16.562 101.691 16.3025C101.691 15.5461 101.691 14.7897 101.691 14.0333C101.691 13.7573 101.691 13.7573 101.967 13.7573H103.068C103.335 13.7573 103.337 13.7573 103.344 13.4812V10.0416C103.347 9.97858 103.347 9.91546 103.344 9.85247C103.328 9.71444 103.372 9.64543 103.532 9.64681C104.539 9.64681 105.545 9.65509 106.552 9.64681C106.748 9.64681 106.743 9.74757 106.742 9.88284C106.742 11.0588 106.742 12.2353 106.742 13.4122C106.742 13.8111 106.713 13.7573 107.101 13.7587C107.467 13.7587 107.835 13.7587 108.202 13.7587C108.34 13.7587 108.385 13.8042 108.384 13.9409C108.384 14.7607 108.384 15.5802 108.384 16.3991C108.384 16.5441 108.319 16.5744 108.191 16.5731C107.793 16.5731 107.396 16.5731 106.996 16.5731C106.743 16.5731 106.74 16.5731 106.74 16.8339C106.74 18.5989 106.74 20.3638 106.74 22.1287V25.8472C106.74 26.1232 106.781 26.1301 106.479 26.1301C105.515 26.1301 104.551 26.1301 103.587 26.1301C103.35 26.1301 103.346 26.1301 103.346 25.89L103.331 21.3475Z" fill="white"/>
<path d="M131.451 33.6126C130.911 33.3907 130.33 33.2858 129.747 33.3048C129.348 33.3127 128.954 33.384 128.578 33.516C128.3 33.6146 128.047 33.7715 127.835 33.9762C127.623 34.1809 127.457 34.4288 127.348 34.703C127.1 35.3408 126.979 36.0213 126.993 36.7058C126.982 38.4809 126.993 40.2559 126.993 42.0296C126.99 42.0926 126.99 42.1557 126.993 42.2187C127.01 42.3691 126.949 42.4202 126.797 42.4188C126.157 42.4188 125.518 42.4188 124.88 42.4188C124.523 42.4188 124.166 42.4188 123.81 42.4188C123.66 42.4188 123.596 42.3705 123.613 42.2201C123.616 42.1676 123.616 42.1151 123.613 42.0627V30.3427C123.613 30.0335 123.572 30.0349 123.917 30.0349H126.685C126.946 30.0349 126.948 30.0349 126.942 30.2944C126.92 31.1543 126.895 32.0142 126.873 32.8742C126.876 32.9114 126.882 32.9484 126.891 32.9846C127.016 32.9156 127.012 32.7886 127.045 32.6906C127.271 31.9779 127.637 31.3176 128.121 30.7485C128.97 29.7989 130.048 29.5063 131.287 29.6553C131.47 29.6774 131.462 29.7934 131.462 29.919C131.462 30.9579 131.462 31.9977 131.462 33.0384L131.451 33.6126Z" fill="white"/>
<path d="M87.8557 32.9805C87.9285 32.8965 87.9762 32.7937 87.9933 32.6837C88.2189 31.9823 88.5785 31.3316 89.0521 30.7679C89.8975 29.8127 90.9714 29.5104 92.2036 29.6554C92.3193 29.6692 92.395 29.6995 92.395 29.8445C92.395 31.0867 92.395 32.3207 92.395 33.5616C92.2835 33.5988 92.205 33.5367 92.1196 33.5091C91.3792 33.2624 90.5839 33.2327 89.8272 33.4235C89.4713 33.4976 89.1404 33.6624 88.8665 33.902C88.5925 34.1416 88.3847 34.4479 88.2632 34.7914C88.0408 35.416 87.933 36.0759 87.9452 36.739C87.9341 38.4919 87.9452 40.2463 87.9355 41.9992C87.9355 42.0627 87.9355 42.1248 87.9355 42.1883C87.9355 42.4106 87.9286 42.4147 87.7083 42.4147C86.9841 42.4147 86.2613 42.4147 85.5385 42.4147C85.2769 42.4147 85.0139 42.4147 84.7523 42.4147C84.6147 42.4147 84.5555 42.3774 84.5678 42.238C84.5678 42.1759 84.5678 42.1124 84.5678 42.0489V30.3966C84.5713 30.3442 84.5713 30.2916 84.5678 30.2392C84.5458 30.0639 84.6325 30.0322 84.7881 30.0322C85.7519 30.0322 86.7157 30.0322 87.6794 30.0322C87.897 30.0322 87.8997 30.0391 87.8942 30.2724C87.8713 31.1419 87.8479 32.012 87.824 32.8825C87.8296 32.9165 87.8402 32.9496 87.8557 32.9805Z" fill="white"/>
<path d="M37.4271 16.119C37.4281 17.6746 37.2183 19.2232 36.8034 20.7222C36.2748 22.6988 35.7309 24.6726 35.2119 26.6505C34.8603 27.9469 34.5895 29.2639 34.4009 30.594C34.2849 31.5026 34.3021 32.4233 34.4519 33.3269C34.5469 33.9384 34.6074 34.5554 34.6721 35.171C34.7837 36.2145 34.8663 37.2607 34.909 38.3097C34.9888 39.7576 34.9723 41.2092 34.8594 42.6549C34.8073 43.4004 34.6118 44.1287 34.2839 44.7998C34.1586 45.0668 33.987 45.3093 33.7772 45.5162C33.4303 45.8378 33.1205 45.755 32.9718 45.3036C32.9221 45.0884 32.9045 44.867 32.9195 44.6466C32.8896 43.3719 32.5941 42.1175 32.0521 40.964C31.1503 39.0675 29.6468 37.9274 27.5898 37.5465C25.9883 37.238 24.3298 37.4848 22.8866 38.2463C21.665 38.8896 20.6136 39.815 19.8191 40.9461C19.2119 41.7922 18.7094 42.7032 18.1518 43.5797C17.9095 43.9606 17.6603 44.3361 17.4097 44.7115C17.2725 44.9229 17.1008 45.1095 16.9016 45.2636C16.4776 45.5894 16.0494 45.5314 15.7259 45.1021C15.4917 44.7635 15.3494 44.3696 15.3128 43.9592C15.1983 43.0304 15.1836 42.092 15.2687 41.16C15.3486 40.0089 15.4574 38.8591 15.5689 37.7093C15.6262 37.1038 15.6506 36.4956 15.6419 35.8874C15.6136 34.7419 15.4364 33.6051 15.1145 32.5057C14.601 30.6699 13.8148 28.939 13.0342 27.2068C12.3361 25.6567 11.6312 24.1094 11.0571 22.5138C10.486 20.9671 10.083 19.3631 9.85513 17.7297C9.67144 16.4074 9.64648 15.0677 9.78078 13.7393C9.95288 12.1479 10.3508 10.6227 11.2072 9.24653C11.8185 8.26377 12.6101 7.46872 13.6689 6.97182C14.5191 6.57706 15.4571 6.41058 16.3909 6.48872C17.2181 6.54934 18.0309 6.73839 18.8003 7.04912C19.0782 7.1432 19.366 7.2048 19.658 7.2327C20.5926 7.36559 21.5374 7.41179 22.4805 7.37073C23.5819 7.32518 24.5843 6.9387 25.5384 6.40453C26.0708 6.08796 26.637 5.83238 27.2264 5.64261C30.0832 4.81444 32.7832 5.52528 34.7589 7.83726C35.903 9.17475 36.5804 10.7441 37.0031 12.4364C37.2948 13.6418 37.4373 14.8786 37.4271 16.119Z" fill="white"/>
<path d="M67.2007 19.9147C67.2217 20.4865 67.1377 21.0573 66.9529 21.5987C66.5275 22.794 65.5899 23.4579 64.3232 23.4703C63.9988 23.4829 63.6743 23.449 63.3594 23.3696C62.3213 23.0714 61.7238 22.344 61.4429 21.3405C61.1772 20.4044 61.1772 19.4126 61.4429 18.4765C61.7321 17.4495 62.3434 16.6821 63.4145 16.4267C65.1204 16.0237 66.4862 16.7525 67.0163 18.464C67.1573 18.934 67.2197 19.4242 67.2007 19.9147Z" fill="#0A0B0B"/>
<path d="M119.177 19.9382C119.195 20.5421 119.095 21.1437 118.882 21.7091C118.7 22.2223 118.364 22.6666 117.921 22.9809C117.477 23.2953 116.947 23.4643 116.404 23.4648C116.132 23.4805 115.858 23.467 115.589 23.4247C114.57 23.2357 113.902 22.6283 113.524 21.6801C113.268 20.9772 113.174 20.2256 113.248 19.4813C113.272 18.839 113.451 18.212 113.769 17.6538C113.999 17.2438 114.335 16.9035 114.741 16.6684C115.148 16.4333 115.61 16.3122 116.079 16.3177C116.5 16.2908 116.922 16.3524 117.318 16.4985C118.085 16.8077 118.578 17.3819 118.881 18.1327C119.101 18.708 119.202 19.3224 119.177 19.9382Z" fill="#0A0B0B"/>
<path d="M72.4354 36.2406C72.4117 35.821 72.462 35.4005 72.5841 34.9984C72.949 33.7561 73.9898 32.9611 75.3129 32.928C75.7215 32.9072 76.1306 32.9582 76.5218 33.0784C77.52 33.4097 78.1285 34.1136 78.4052 35.1088C78.605 35.8305 78.6112 36.5924 78.4231 37.3173C78.0624 38.7555 76.8825 39.712 75.1408 39.5713C73.5038 39.4332 72.5469 38.191 72.4368 36.6837C72.4271 36.5346 72.4354 36.3869 72.4354 36.2406Z" fill="#0A0B0B"/>
<path d="M117.45 34.1109C116.977 34.1965 116.546 34.2765 116.113 34.3524L112.619 34.968C112.578 34.9749 112.538 34.9874 112.495 34.9915C112.335 35.0053 112.304 34.9763 112.334 34.819C112.546 33.7492 113.16 32.8396 114.464 32.6478C114.962 32.5677 115.471 32.595 115.958 32.7278C116.671 32.928 117.157 33.3821 117.45 34.1109Z" fill="#0A0C0B"/>
<path d="M81.55 17.7946L76.5673 18.6711C76.5394 18.6767 76.5105 18.675 76.4834 18.666C76.4564 18.6571 76.4321 18.6412 76.4131 18.62C76.4713 18.218 76.6039 17.8303 76.8041 17.4771C76.9513 17.2163 77.1488 16.9875 77.3852 16.804C77.6216 16.6206 77.8921 16.4862 78.1809 16.4088C78.7897 16.2349 79.4349 16.2349 80.0437 16.4088C80.7597 16.6048 81.254 17.0548 81.55 17.7946Z" fill="#0A0C0B"/>
<path d="M14.1453 19.0948C14.5101 19.0948 14.8337 19.0948 15.1572 19.0948C15.31 19.0948 15.3169 19.1942 15.3348 19.2991C15.4285 19.8264 15.5716 20.3426 15.6749 20.8671C16.2421 23.7519 18.8966 26.2819 21.6255 26.9403C22.5286 27.1747 23.4604 27.2793 24.3929 27.2509C25.9195 27.1974 27.4042 26.7366 28.694 25.9162C30.3889 24.8244 31.606 23.3461 32.1746 21.375C32.4183 20.5344 32.6248 19.6911 32.5876 18.8077C32.5876 18.6573 32.6331 18.6007 32.7859 18.6076C33.0365 18.6172 33.2898 18.62 33.5404 18.6076C33.718 18.5993 33.7442 18.6807 33.7469 18.8326C33.759 19.4425 33.6938 20.0514 33.5528 20.6449C33.3573 21.4951 33.1397 22.344 32.7391 23.1211C31.6252 25.2453 29.9772 26.7844 27.7399 27.6871C26.6005 28.1453 25.3876 28.3927 24.1602 28.4172C23.1309 28.4383 22.1047 28.2953 21.1202 27.9935C18.2399 27.1129 16.2119 25.2702 14.9837 22.5303C14.7084 21.923 14.5941 21.2688 14.433 20.6269C14.3039 20.1231 14.2078 19.6113 14.1453 19.0948Z" fill="black"/>
<path d="M21.2029 15.778C21.2012 16.1382 21.0931 16.4899 20.8922 16.7885C20.6913 17.0872 20.4065 17.3194 20.074 17.4559C19.7414 17.5924 19.376 17.6269 19.0239 17.5553C18.6717 17.4836 18.3487 17.3089 18.0956 17.0532C17.8424 16.7975 17.6706 16.4723 17.6018 16.1187C17.5329 15.7652 17.5702 15.3991 17.7088 15.0668C17.8475 14.7344 18.0813 14.4507 18.3807 14.2516C18.6801 14.0524 19.0317 13.9467 19.391 13.9478C19.8718 13.9546 20.3308 14.1501 20.6695 14.4922C21.0082 14.8344 21.1997 15.296 21.2029 15.778Z" fill="#010101"/>
<path d="M29.852 15.7131C29.8559 16.073 29.7528 16.4258 29.556 16.7268C29.3592 17.0278 29.0775 17.2632 28.7468 17.4032C28.4161 17.5432 28.0513 17.5814 27.6989 17.513C27.3465 17.4445 27.0223 17.2725 26.7677 17.0188C26.5131 16.7651 26.3395 16.4412 26.2691 16.0883C26.1986 15.7354 26.2345 15.3695 26.3721 15.0371C26.5097 14.7047 26.7429 14.4209 27.0419 14.2217C27.3409 14.0226 27.6922 13.9171 28.0512 13.9187C28.2871 13.9173 28.5211 13.9626 28.7395 14.0521C28.9579 14.1417 29.1565 14.2736 29.3239 14.4404C29.4913 14.6071 29.6241 14.8054 29.7147 15.0239C29.8054 15.2423 29.852 15.4765 29.852 15.7131Z" fill="black"/>
</g>
<defs>
<clipPath id="clip0_204_530">
<rect width="142.5" height="49" fill="white"/>
</clipPath>
</defs>
</svg>
